<svg width="303" height="593" viewBox="0 0 303 593" fill="none" xmlns="http://www.w3.org/2000/svg">
<path d="M-126.239 144.961C-126.515 187.39 -134.704 239.209 -178.317 293.648C-228.531 356.326 -188.444 221.323 -126.239 144.961C-106.267 120.443 -84.0147 101.97 -61.7392 98.0256C-22.1458 91.015 -22.4012 146.584 -38.9406 214.926C-4.98177 171.267 27.8485 143.364 44.4751 159.991C58.1926 173.708 59.619 203.414 53.482 240.281C86.8858 200.413 117.872 175.631 135.684 184.826C171.578 203.355 160.4 273.942 133.236 342.111C105.544 411.602 61.2408 478.581 33.2553 485.343C5.29249 492.098 60.7159 398.398 133.236 342.111C160.4 273.942 171.578 203.355 135.684 184.826C117.872 175.631 86.8858 200.413 53.482 240.281C34.8095 352.449 -53.8804 530.902 -79.4351 526.981C-121.783 520.484 -27.1135 336.472 53.482 240.281C59.619 203.414 58.1926 173.708 44.4751 159.991C27.8485 143.364 -4.98177 171.267 -38.9406 214.926C-67.1556 331.511 -142.76 485.265 -148.762 428.909C-152.057 397.973 -94.0147 285.73 -38.9406 214.926C-22.4012 146.584 -22.1458 91.015 -61.7392 98.0256C-84.0147 101.97 -106.267 120.443 -126.239 144.961Z" fill="#F25639"/>
<path d="M-128.388 83.9508C-128.388 130.457 -110.403 208.876 -178.317 293.648C-244.653 376.45 -153.393 114.254 -61.7392 98.0256C45.3982 79.0554 -139.242 518.301 -148.762 428.909C-154.089 378.898 0.883576 116.399 44.4751 159.991C99.929 215.445 -45.4813 532.191 -79.4351 526.981C-139.334 517.791 74.897 153.446 135.684 184.826C208.168 222.244 88.6938 471.949 33.2553 485.343C-11.0955 496.057 154.32 254.065 265.012 309.449" stroke="black" stroke-width="8" stroke-linecap="round"/>
<path d="M272.507 289.989C273.588 288.054 276.546 289.052 276.233 291.246L275.657 295.288C275.469 296.605 276.594 297.734 277.912 297.552L293.626 295.372C295.746 295.078 296.784 297.871 294.987 299.033L283.309 306.583C281.955 307.459 282.141 309.496 283.632 310.111L291.582 313.393C293.409 314.148 293.151 316.813 291.212 317.203L286.01 318.248C284.834 318.484 284.129 319.694 284.503 320.833L285.98 325.327C286.544 327.044 284.721 328.569 283.131 327.711L276.787 324.291C275.159 323.413 273.314 325.026 273.966 326.756L277.455 336.022C278.212 338.032 275.7 339.66 274.175 338.147L264.312 328.364C263.676 327.733 262.698 327.602 261.918 328.043L250.799 334.334C248.946 335.382 246.956 333.195 248.174 331.449L254.723 322.062C255.322 321.204 255.157 320.028 254.345 319.367L242.928 310.073C241.468 308.885 242.308 306.522 244.19 306.522H252.986C253.981 306.522 254.824 305.791 254.966 304.807L256.345 295.245C256.643 293.176 259.514 292.894 260.21 294.864L262.444 301.188C263.018 302.811 265.237 303 266.076 301.497L272.507 289.989Z" fill="#F25639"/>
</svg>
